<svg width="40" height="30" viewBox="0 0 40 30" fill="none" xmlns="http://www.w3.org/2000/svg">
<path d="M6.01742 15C6.01742 13.5867 6.15076 12.3067 6.41742 11.16C6.68409 9.98667 7.07076 8.98667 7.57742 8.16C8.08409 7.30667 8.68409 6.65333 9.37742 6.2C10.0708 5.74667 10.8441 5.52 11.6974 5.52C12.5774 5.52 13.3641 5.74667 14.0574 6.2C14.7508 6.65333 15.3508 7.30667 15.8574 8.16C16.3641 8.98667 16.7508 9.98667 17.0174 11.16C17.2841 12.3067 17.4174 13.5867 17.4174 15C17.4174 16.4133 17.2841 17.7067 17.0174 18.88C16.7508 20.0267 16.3641 21.0267 15.8574 21.88C15.3508 22.7067 14.7508 23.3467 14.0574 23.8C13.3641 24.2533 12.5774 24.48 11.6974 24.48C10.8441 24.48 10.0708 24.2533 9.37742 23.8C8.68409 23.3467 8.08409 22.7067 7.57742 21.88C7.07076 21.0267 6.68409 20.0267 6.41742 18.88C6.15076 17.7067 6.01742 16.4133 6.01742 15ZM0.457422 15C0.457422 17.96 0.924089 20.52 1.85742 22.68C2.81742 24.84 4.13742 26.52 5.81742 27.72C7.52409 28.8933 9.48409 29.48 11.6974 29.48C13.9908 29.48 15.9774 28.8933 17.6574 27.72C19.3374 26.52 20.6441 24.84 21.5774 22.68C22.5108 20.52 22.9774 17.96 22.9774 15C22.9774 12.04 22.5108 9.48 21.5774 7.32C20.6441 5.16 19.3374 3.49333 17.6574 2.32C15.9774 1.12 13.9908 0.52 11.6974 0.52C9.48409 0.52 7.52409 1.12 5.81742 2.32C4.13742 3.49333 2.81742 5.16 1.85742 7.32C0.924089 9.48 0.457422 12.04 0.457422 15ZM27.4005 8.28L34.1205 6.52V29H39.6805V0.52L27.4005 3.12V8.28Z" fill="#47CFFF"/>
</svg>
