<svg width="48" height="30" viewBox="0 0 48 30" fill="none" xmlns="http://www.w3.org/2000/svg">
<path d="M6.01742 15C6.01742 13.5867 6.15076 12.3067 6.41742 11.16C6.68409 9.98667 7.07076 8.98667 7.57742 8.16C8.08409 7.30667 8.68409 6.65333 9.37742 6.2C10.0708 5.74667 10.8441 5.52 11.6974 5.52C12.5774 5.52 13.3641 5.74667 14.0574 6.2C14.7508 6.65333 15.3508 7.30667 15.8574 8.16C16.3641 8.98667 16.7508 9.98667 17.0174 11.16C17.2841 12.3067 17.4174 13.5867 17.4174 15C17.4174 16.4133 17.2841 17.7067 17.0174 18.88C16.7508 20.0267 16.3641 21.0267 15.8574 21.88C15.3508 22.7067 14.7508 23.3467 14.0574 23.8C13.3641 24.2533 12.5774 24.48 11.6974 24.48C10.8441 24.48 10.0708 24.2533 9.37742 23.8C8.68409 23.3467 8.08409 22.7067 7.57742 21.88C7.07076 21.0267 6.68409 20.0267 6.41742 18.88C6.15076 17.7067 6.01742 16.4133 6.01742 15ZM0.457422 15C0.457422 17.96 0.924089 20.52 1.85742 22.68C2.81742 24.84 4.13742 26.52 5.81742 27.72C7.52409 28.8933 9.48409 29.48 11.6974 29.48C13.9908 29.48 15.9774 28.8933 17.6574 27.72C19.3374 26.52 20.6441 24.84 21.5774 22.68C22.5108 20.52 22.9774 17.96 22.9774 15C22.9774 12.04 22.5108 9.48 21.5774 7.32C20.6441 5.16 19.3374 3.49333 17.6574 2.32C15.9774 1.12 13.9908 0.52 11.6974 0.52C9.48409 0.52 7.52409 1.12 5.81742 2.32C4.13742 3.49333 2.81742 5.16 1.85742 7.32C0.924089 9.48 0.457422 12.04 0.457422 15ZM25.3605 29H47.8805V23.76H36.1605L43.4405 16.88C44.6139 15.8133 45.5605 14.6267 46.2805 13.32C47.0005 12.0133 47.3605 10.6133 47.3605 9.12C47.3605 8.10667 47.1472 7.09333 46.7205 6.08C46.3205 5.06667 45.6939 4.14667 44.8405 3.32C44.0139 2.46667 42.9605 1.78667 41.6805 1.28C40.4272 0.746665 38.9605 0.479998 37.2805 0.479998C35.0139 0.479998 33.0939 0.959998 31.5205 1.92C29.9739 2.85333 28.8005 4.12 28.0005 5.72C27.2005 7.32 26.8005 9.12 26.8005 11.12H32.4005C32.4005 10 32.5872 9.01333 32.9605 8.16C33.3605 7.30667 33.9072 6.65333 34.6005 6.2C35.3205 5.72 36.1739 5.48 37.1605 5.48C37.8539 5.48 38.4672 5.6 39.0005 5.84C39.5339 6.05333 39.9872 6.34667 40.3605 6.72C40.7339 7.09333 41.0139 7.52 41.2005 8C41.3872 8.48 41.4805 8.97333 41.4805 9.48C41.4805 10.2 41.3472 10.8933 41.0805 11.56C40.8139 12.2267 40.4272 12.8933 39.9205 13.56C39.4139 14.2267 38.8005 14.9467 38.0805 15.72L25.3605 29Z" fill="#47CFFF"/>
</svg>
