<svg width="48" height="30" viewBox="0 0 48 30" fill="none" xmlns="http://www.w3.org/2000/svg">
<path d="M6.01742 15C6.01742 13.5867 6.15076 12.3067 6.41742 11.16C6.68409 9.98667 7.07076 8.98667 7.57742 8.16C8.08409 7.30667 8.68409 6.65333 9.37742 6.2C10.0708 5.74667 10.8441 5.52 11.6974 5.52C12.5774 5.52 13.3641 5.74667 14.0574 6.2C14.7508 6.65333 15.3508 7.30667 15.8574 8.16C16.3641 8.98667 16.7508 9.98667 17.0174 11.16C17.2841 12.3067 17.4174 13.5867 17.4174 15C17.4174 16.4133 17.2841 17.7067 17.0174 18.88C16.7508 20.0267 16.3641 21.0267 15.8574 21.88C15.3508 22.7067 14.7508 23.3467 14.0574 23.8C13.3641 24.2533 12.5774 24.48 11.6974 24.48C10.8441 24.48 10.0708 24.2533 9.37742 23.8C8.68409 23.3467 8.08409 22.7067 7.57742 21.88C7.07076 21.0267 6.68409 20.0267 6.41742 18.88C6.15076 17.7067 6.01742 16.4133 6.01742 15ZM0.457422 15C0.457422 17.96 0.924089 20.52 1.85742 22.68C2.81742 24.84 4.13742 26.52 5.81742 27.72C7.52409 28.8933 9.48409 29.48 11.6974 29.48C13.9908 29.48 15.9774 28.8933 17.6574 27.72C19.3374 26.52 20.6441 24.84 21.5774 22.68C22.5108 20.52 22.9774 17.96 22.9774 15C22.9774 12.04 22.5108 9.48 21.5774 7.32C20.6441 5.16 19.3374 3.49333 17.6574 2.32C15.9774 1.12 13.9908 0.52 11.6974 0.52C9.48409 0.52 7.52409 1.12 5.81742 2.32C4.13742 3.49333 2.81742 5.16 1.85742 7.32C0.924089 9.48 0.457422 12.04 0.457422 15ZM35.2805 15.36C37.3872 15.36 39.2672 15.08 40.9205 14.52C42.5739 13.96 43.8805 13.1467 44.8405 12.08C45.8005 10.9867 46.2805 9.68 46.2805 8.16C46.2805 6.74667 45.9205 5.46667 45.2005 4.32C44.4805 3.17333 43.4272 2.25333 42.0405 1.56C40.6805 0.866666 39.0272 0.52 37.0805 0.52C35.2405 0.52 33.6272 0.879999 32.2405 1.6C30.8539 2.32 29.7605 3.30667 28.9605 4.56C28.1872 5.78667 27.8005 7.2 27.8005 8.8H33.1205C33.1205 7.76 33.4939 6.90667 34.2405 6.24C35.0139 5.54667 35.9605 5.2 37.0805 5.2C37.8805 5.2 38.5339 5.33333 39.0405 5.6C39.5472 5.86666 39.9339 6.25333 40.2005 6.76C40.4672 7.26667 40.6005 7.85333 40.6005 8.52C40.6005 9.05333 40.4672 9.57333 40.2005 10.08C39.9605 10.56 39.6139 11 39.1605 11.4C38.7072 11.7733 38.1472 12.0667 37.4805 12.28C36.8405 12.4933 36.1072 12.6 35.2805 12.6V15.36ZM36.8405 29.56C38.9205 29.56 40.7205 29.2267 42.2405 28.56C43.7872 27.8667 44.9739 26.9067 45.8005 25.68C46.6539 24.4533 47.0805 23.04 47.0805 21.44C47.0805 20.0267 46.7872 18.8267 46.2005 17.84C45.6139 16.8267 44.7872 16 43.7205 15.36C42.6539 14.6933 41.4005 14.2133 39.9605 13.92C38.5472 13.6267 36.9872 13.48 35.2805 13.48V16.52C36.2672 16.52 37.1339 16.6267 37.8805 16.84C38.6539 17.0267 39.2939 17.3067 39.8005 17.68C40.3339 18.0533 40.7339 18.52 41.0005 19.08C41.2672 19.6133 41.4005 20.2 41.4005 20.84C41.4005 21.72 41.2139 22.4533 40.8405 23.04C40.4672 23.6267 39.9472 24.08 39.2805 24.4C38.6405 24.6933 37.8805 24.84 37.0005 24.84C36.1472 24.84 35.3605 24.68 34.6405 24.36C33.9205 24.0133 33.3472 23.52 32.9205 22.88C32.4939 22.24 32.2805 21.4667 32.2805 20.56H26.6005C26.6005 21.76 26.8405 22.9067 27.3205 24C27.8005 25.0667 28.4805 26.0267 29.3605 26.88C30.2405 27.7067 31.3072 28.36 32.5605 28.84C33.8139 29.32 35.2405 29.56 36.8405 29.56Z" fill="#47CFFF"/>
</svg>
