<svg width="19" height="16" viewBox="0 0 19 16" fill="none" xmlns="http://www.w3.org/2000/svg">
<path d="M16.3506 4.16162C17.0537 3.63428 17.6865 3.00146 18.1787 2.26318C17.5459 2.54443 16.8076 2.75537 16.0693 2.82568C16.8428 2.36865 17.4053 1.66553 17.6865 0.786621C16.9834 1.2085 16.1748 1.5249 15.3662 1.70068C14.6631 0.962402 13.7139 0.540527 12.6592 0.540527C10.6201 0.540527 8.96777 2.19287 8.96777 4.23193C8.96777 4.51318 9.00293 4.79443 9.07324 5.07568C6.01465 4.8999 3.27246 3.42334 1.44434 1.2085C1.12793 1.73584 0.952148 2.36865 0.952148 3.07178C0.952148 4.3374 1.58496 5.4624 2.60449 6.13037C2.00684 6.09521 1.40918 5.95459 0.916992 5.67334V5.7085C0.916992 7.50146 2.18262 8.97803 3.87012 9.32959C3.58887 9.3999 3.2373 9.47021 2.9209 9.47021C2.6748 9.47021 2.46387 9.43506 2.21777 9.3999C2.6748 10.8765 4.0459 11.9312 5.66309 11.9663C4.39746 12.9507 2.81543 13.5483 1.09277 13.5483C0.776367 13.5483 0.495117 13.5132 0.213867 13.478C1.83105 14.5327 3.76465 15.1304 5.87402 15.1304C12.6592 15.1304 16.3506 9.54053 16.3506 4.65381C16.3506 4.47803 16.3506 4.3374 16.3506 4.16162Z" fill="#1B2534"/>
</svg>
