<svg width="17" height="17" viewBox="0 0 17 17" fill="none" xmlns="http://www.w3.org/2000/svg">
<path d="M3.85449 16.5679V6.05615H0.584961V16.5679H3.85449ZM2.20215 4.6499C3.25684 4.6499 4.10059 3.771 4.10059 2.71631C4.10059 1.69678 3.25684 0.853027 2.20215 0.853027C1.18262 0.853027 0.338867 1.69678 0.338867 2.71631C0.338867 3.771 1.18262 4.6499 2.20215 4.6499ZM16.0537 16.5679H16.0889V10.8022C16.0889 7.98975 15.4561 5.81006 12.1514 5.81006C10.5693 5.81006 9.51465 6.68896 9.05762 7.49756H9.02246V6.05615H5.89355V16.5679H9.16309V11.3647C9.16309 9.99365 9.40918 8.69287 11.0967 8.69287C12.7842 8.69287 12.8193 10.2397 12.8193 11.4702V16.5679H16.0537Z" fill="#1B2534"/>
</svg>
