<svg width="18" height="18" viewBox="0 0 18 18" fill="none" xmlns="http://www.w3.org/2000/svg">
<path d="M8.71387 4.67529C6.33887 4.67529 4.44629 6.60498 4.44629 8.94287C4.44629 11.3179 6.33887 13.2104 8.71387 13.2104C11.0518 13.2104 12.9814 11.3179 12.9814 8.94287C12.9814 6.60498 11.0518 4.67529 8.71387 4.67529ZM8.71387 11.7261C7.19238 11.7261 5.93066 10.5015 5.93066 8.94287C5.93066 7.42139 7.15527 6.19678 8.71387 6.19678C10.2354 6.19678 11.46 7.42139 11.46 8.94287C11.46 10.5015 10.2354 11.7261 8.71387 11.7261ZM14.1318 4.52686C14.1318 3.97021 13.6865 3.5249 13.1299 3.5249C12.5732 3.5249 12.1279 3.97021 12.1279 4.52686C12.1279 5.0835 12.5732 5.52881 13.1299 5.52881C13.6865 5.52881 14.1318 5.0835 14.1318 4.52686ZM16.9521 5.52881C16.8779 4.19287 16.5811 3.00537 15.6162 2.04053C14.6514 1.07568 13.4639 0.778809 12.1279 0.70459C10.7549 0.630371 6.63574 0.630371 5.2627 0.70459C3.92676 0.778809 2.77637 1.07568 1.77441 2.04053C0.80957 3.00537 0.512695 4.19287 0.438477 5.52881C0.364258 6.90186 0.364258 11.021 0.438477 12.394C0.512695 13.73 0.80957 14.8804 1.77441 15.8823C2.77637 16.8472 3.92676 17.144 5.2627 17.2183C6.63574 17.2925 10.7549 17.2925 12.1279 17.2183C13.4639 17.144 14.6514 16.8472 15.6162 15.8823C16.5811 14.8804 16.8779 13.73 16.9521 12.394C17.0264 11.021 17.0264 6.90186 16.9521 5.52881ZM15.1709 13.8413C14.9111 14.5835 14.3174 15.1401 13.6123 15.437C12.499 15.8823 9.90137 15.771 8.71387 15.771C7.48926 15.771 4.8916 15.8823 3.81543 15.437C3.07324 15.1401 2.5166 14.5835 2.21973 13.8413C1.77441 12.7651 1.88574 10.1675 1.88574 8.94287C1.88574 7.75537 1.77441 5.15771 2.21973 4.04443C2.5166 3.33936 3.07324 2.78271 3.81543 2.48584C4.8916 2.04053 7.48926 2.15186 8.71387 2.15186C9.90137 2.15186 12.499 2.04053 13.6123 2.48584C14.3174 2.74561 14.874 3.33936 15.1709 4.04443C15.6162 5.15771 15.5049 7.75537 15.5049 8.94287C15.5049 10.1675 15.6162 12.7651 15.1709 13.8413Z" fill="#1B2534"/>
</svg>
